<?xml version="1.0" standalone="no"?>
<!DOCTYPE svg PUBLIC "-//W3C//DTD SVG 20010904//EN"
 "http://www.w3.org/TR/2001/REC-SVG-20010904/DTD/svg10.dtd">
<svg version="1.0" xmlns="http://www.w3.org/2000/svg"
 width="800.000000pt" height="800.000000pt" viewBox="0 0 800.000000 800.000000"
 preserveAspectRatio="xMidYMid meet">
<metadata>
Created by potrace 1.14, written by Peter Selinger 2001-2017
</metadata>
<g transform="translate(0.000000,800.000000) scale(0.100000,-0.100000)"
fill="#000000" stroke="none">
<path d="M3966 7639 c-16 -4 -33 -6 -38 -3 -4 3 -8 -1 -8 -8 0 -8 -3 -9 -8 -3
-10 14 -74 17 -66 3 4 -7 0 -7 -12 0 -28 14 -94 14 -94 -1 0 -8 -3 -8 -8 -2
-10 15 -145 16 -154 1 -6 -8 -8 -8 -8 0 0 19 -78 15 -91 -4 -10 -16 -10 -16
-5 1 3 9 1 17 -4 17 -6 0 -10 -6 -10 -12 0 -9 -4 -8 -10 2 -9 13 -11 13 -20 0
-5 -8 -10 -10 -10 -4 0 15 -61 16 -79 1 -12 -9 -13 -9 -7 1 4 6 3 12 -3 12 -5
0 -12 -6 -14 -12 -4 -10 -6 -10 -6 0 -1 6 -10 12 -22 12 -13 0 -18 -4 -13 -12
6 -10 4 -10 -8 0 -14 11 -18 10 -28 -5 -10 -16 -11 -16 -6 0 3 9 1 17 -4 17
-6 0 -10 -6 -10 -12 0 -9 -4 -8 -10 2 -9 13 -11 13 -20 0 -5 -8 -10 -10 -10
-4 0 7 -20 11 -50 11 -27 0 -47 -4 -44 -8 3 -5 0 -9 -5 -9 -6 0 -11 5 -11 10
0 17 -58 11 -70 -7 -11 -17 -11 -17 -6 0 6 19 -10 24 -17 5 -4 -10 -6 -10 -6
0 -1 6 -8 12 -17 12 -9 0 -12 -5 -8 -12 5 -7 3 -8 -7 -2 -21 13 -51 16 -44 4
4 -6 -2 -7 -17 -1 -36 13 -98 12 -98 -2 0 -8 -3 -8 -8 -2 -10 15 -154 16 -171
2 -10 -8 -13 -8 -8 -1 4 7 -3 11 -21 11 -15 0 -21 -2 -14 -4 6 -3 12 -9 12
-14 0 -6 -4 -7 -10 -4 -5 3 -10 2 -10 -4 0 -5 6 -12 13 -14 10 -4 10 -6 0 -6
-7 -1 -13 -6 -13 -12 0 -5 5 -7 11 -4 6 4 5 -2 -2 -13 -11 -17 -10 -24 2 -38
9 -11 9 -15 2 -10 -9 5 -13 0 -13 -14 0 -12 4 -19 8 -16 5 3 9 -1 9 -9 0 -8
-4 -12 -8 -10 -3 3 -9 -4 -12 -15 -3 -11 -1 -23 4 -26 5 -3 6 -10 3 -16 -4 -6
0 -14 7 -19 10 -6 11 -9 2 -9 -17 0 -17 -47 0 -53 10 -4 10 -6 0 -6 -7 -1 -13
-8 -13 -17 0 -14 2 -15 18 -3 15 12 16 12 5 -2 -7 -9 -9 -20 -5 -24 4 -5 1 -5
-5 -1 -9 5 -13 0 -13 -14 0 -12 4 -19 10 -15 5 3 3 -7 -5 -22 -9 -17 -11 -31
-5 -38 6 -7 7 -15 3 -19 -4 -4 -1 -11 7 -16 10 -7 11 -10 3 -10 -7 0 -13 -7
-13 -16 0 -14 2 -15 18 -3 15 12 16 12 5 -2 -7 -9 -9 -20 -5 -24 4 -5 1 -5 -6
-1 -9 5 -12 -1 -10 -24 1 -20 7 -29 15 -26 7 3 13 0 13 -7 0 -8 4 -6 10 3 5 8
10 10 10 5 0 -6 9 -11 20 -12 11 -1 18 2 16 6 -3 4 1 8 9 8 8 0 12 -4 9 -9 -3
-4 0 -8 5 -8 6 0 11 6 11 13 0 8 3 8 8 2 10 -15 112 -16 112 -2 0 8 3 9 8 2 8
-12 104 -17 97 -5 -2 4 2 7 10 7 8 0 12 -4 9 -9 -6 -10 26 -6 45 6 10 6 12 5
7 -2 -4 -7 -1 -12 8 -12 10 0 13 6 9 18 -5 14 -3 13 10 -3 13 -15 16 -16 17
-5 0 11 2 12 8 2 9 -13 38 -12 61 2 10 6 12 5 7 -2 -5 -8 1 -11 18 -10 13 1
22 6 19 11 -3 5 5 3 16 -5 18 -11 23 -11 31 2 5 8 10 11 10 5 0 -14 123 -15
132 -1 5 7 8 7 8 1 0 -15 110 -16 110 -1 0 7 3 8 8 1 8 -12 104 -17 97 -5 -2
4 2 7 10 7 8 0 12 -4 9 -9 -6 -10 26 -6 45 6 10 6 12 5 7 -2 -4 -7 -1 -12 8
-12 10 0 13 6 9 18 -5 14 -3 13 10 -3 13 -15 16 -16 17 -5 0 11 2 12 8 2 9
-13 38 -12 61 2 10 6 12 5 7 -2 -5 -8 1 -11 18 -10 13 1 22 6 19 11 -3 5 5 3
16 -5 18 -11 23 -11 31 2 8 12 10 12 10 1 0 -11 3 -11 17 0 9 8 14 9 11 4 -4
-6 6 -11 23 -11 16 -1 27 2 24 6 -2 3 2 7 10 7 8 0 12 -4 9 -9 -6 -10 26 -6
45 6 10 6 12 5 7 -2 -4 -7 -1 -12 8 -12 10 0 13 6 9 18 -5 14 -3 13 10 -3 13
-15 16 -16 17 -5 0 11 2 12 8 2 10 -15 58 -9 54 8 -1 6 2 9 8 5 6 -3 8 -11 5
-16 -4 -5 1 -9 9 -9 10 0 13 6 10 18 -5 15 -4 15 6 -1 10 -15 14 -16 28 -5 12
10 14 10 8 1 -5 -9 0 -12 17 -11 17 2 23 7 20 18 -3 10 -1 10 7 -2 13 -21 40
-24 40 -5 0 8 3 8 8 2 10 -15 174 -16 165 -1 -4 6 1 5 10 -3 14 -11 17 -11 17
0 0 11 2 11 10 -1 8 -12 13 -13 30 -2 16 10 20 10 20 0 0 -9 3 -8 10 2 6 10
10 11 10 3 0 -7 7 -13 16 -13 9 0 12 5 8 13 -5 7 0 6 11 -3 11 -9 16 -10 11
-2 -4 6 -2 12 3 12 6 0 11 -6 11 -12 0 -9 4 -8 10 2 9 13 10 13 10 0 0 -13 1
-13 10 0 9 13 10 13 10 0 0 -13 1 -13 10 0 9 13 10 13 10 0 0 -13 1 -13 10 0
9 13 10 13 10 0 0 -13 1 -13 10 0 6 10 10 11 10 3 0 -7 7 -13 16 -13 9 0 12 5
8 13 -5 7 0 6 11 -3 11 -9 16 -10 11 -2 -4 6 -2 12 3 12 6 0 11 -6 11 -12 0
-9 4 -8 10 2 9 13 10 13 10 0 0 -13 1 -13 10 0 9 13 10 13 10 0 0 -13 1 -13
10 0 5 8 10 10 10 4 0 -14 31 -14 49 0 9 6 12 7 9 1 -4 -6 4 -12 18 -13 13 -1
24 4 24 11 0 8 4 7 10 -3 9 -13 10 -13 10 0 0 13 1 13 10 0 8 -13 13 -13 31
-2 11 8 19 10 16 5 -3 -5 5 -10 19 -11 13 -1 24 4 24 11 0 8 4 7 10 -3 9 -13
10 -13 10 0 0 13 1 13 10 0 8 -13 13 -13 31 -2 11 8 19 10 16 5 -3 -5 5 -10
19 -11 13 -1 24 4 24 11 0 8 4 7 10 -3 9 -13 10 -13 10 0 0 13 1 13 10 0 8
-13 13 -13 31 -2 11 8 19 10 16 5 -3 -5 5 -10 19 -11 13 -1 24 4 24 11 0 8 4
7 10 -3 9 -13 10 -13 10 0 0 10 3 11 8 4 10 -17 98 -12 94 4 -1 8 2 11 8 7 6
-3 8 -10 6 -14 -3 -4 6 -7 20 -7 13 0 24 6 24 13 0 7 6 13 13 13 8 0 7 4 -3
10 -13 9 -13 11 0 20 13 9 13 10 0 10 -13 0 -13 1 0 10 11 7 11 10 2 10 -8 0
-10 5 -5 13 11 17 13 38 3 32 -4 -3 -10 2 -13 10 -4 10 -1 12 11 8 15 -6 15
-5 3 10 -7 10 -9 17 -3 17 11 0 10 25 -1 36 -10 10 -9 26 1 20 4 -2 8 4 8 15
0 10 -4 19 -9 19 -5 0 -3 8 4 17 12 14 12 16 0 8 -10 -6 -12 -4 -6 6 15 23 12
69 -4 79 -14 8 -13 9 4 10 15 0 17 2 6 9 -11 7 -11 9 0 14 10 4 10 6 2 6 -7 1
-13 6 -13 12 0 5 3 8 8 6 4 -3 7 14 7 38 0 24 -3 41 -6 39 -4 -2 -9 3 -12 11
-4 9 -1 12 8 9 14 -6 15 19 2 32 -12 12 -8 26 6 18 9 -5 9 -4 0 6 -16 17 -93
23 -93 7 0 -8 -3 -8 -8 -2 -10 16 -62 17 -80 3 -13 -10 -14 -10 -8 0 4 6 3 12
-3 12 -5 0 -12 -6 -14 -12 -4 -10 -6 -10 -6 0 -1 6 -10 12 -22 12 -13 0 -18
-4 -13 -12 6 -10 4 -10 -8 0 -14 11 -18 10 -28 -5 -10 -16 -11 -16 -6 0 3 9 1
17 -4 17 -6 0 -10 -6 -10 -12 0 -9 -4 -8 -10 2 -9 13 -11 13 -20 0 -5 -8 -10
-10 -10 -4 0 7 -20 11 -50 11 -27 0 -47 -4 -44 -8 3 -5 0 -9 -5 -9 -6 0 -11 5
-11 10 0 17 -58 11 -70 -7 -11 -17 -11 -17 -6 0 6 19 -10 24 -17 5 -4 -10 -6
-10 -6 0 -1 6 -8 12 -17 12 -9 0 -12 -5 -8 -12 5 -7 3 -8 -7 -2 -21 13 -51 16
-44 4 4 -6 -2 -7 -17 -1 -36 13 -98 12 -98 -2 0 -8 -3 -8 -8 -2 -10 15 -145
16 -154 1 -6 -8 -8 -8 -8 1 0 15 -49 14 -69 -1 -11 -8 -13 -8 -7 2 4 6 3 12
-3 12 -5 0 -12 -6 -14 -12 -4 -10 -6 -10 -6 0 -1 6 -10 12 -22 12 -13 0 -18
-4 -13 -12 6 -10 4 -10 -8 0 -14 11 -18 10 -28 -5 -10 -16 -11 -16 -6 0 3 9 1
17 -4 17 -6 0 -10 -6 -10 -12 0 -9 -4 -8 -10 2 -9 13 -11 13 -20 0 -5 -8 -10
-10 -10 -4 0 6 -18 11 -40 12 -33 2 -38 -1 -34 -16 5 -14 4 -15 -5 -2 -13 19
-60 23 -80 7 -12 -9 -13 -9 -7 1 4 6 3 12 -3 12 -5 0 -12 -6 -14 -12 -4 -10
-6 -10 -6 0 -1 6 -10 12 -22 12 -13 0 -18 -4 -13 -12 6 -10 4 -10 -8 0 -14 11
-18 10 -28 -5 -10 -16 -11 -16 -6 0 3 9 1 17 -4 17 -6 0 -10 -5 -10 -12 0 -7
-5 -6 -12 4 -10 12 -20 13 -42 7z m-1332 -17 c3 -5 -1 -9 -9 -9 -8 0 -12 4 -9
9 3 4 7 8 9 8 2 0 6 -4 9 -8z m506 4 c0 -2 -7 -7 -16 -10 -8 -3 -12 -2 -9 4 6
10 25 14 25 6z m240 0 c0 -2 -7 -7 -16 -10 -8 -3 -12 -2 -9 4 6 10 25 14 25 6z
m1680 0 c0 -2 -7 -7 -16 -10 -8 -3 -12 -2 -9 4 6 10 25 14 25 6z m240 0 c0 -2
-7 -7 -16 -10 -8 -3 -12 -2 -9 4 6 10 25 14 25 6z m110 -11 c0 -2 -9 -3 -19
-2 -11 0 -18 5 -15 9 4 6 34 0 34 -7z"/>
<path d="M3987 5863 c-4 -3 -41 -6 -82 -6 -44 0 -70 -4 -63 -8 7 -5 8 -9 3 -9
-6 0 -16 5 -23 12 -9 9 -12 8 -12 -7 0 -14 -3 -16 -8 -8 -9 14 -63 13 -74 -2
-5 -6 -8 -5 -8 3 0 7 -5 10 -10 7 -6 -4 -7 -12 -4 -18 5 -8 3 -8 -7 1 -18 17
-49 15 -49 -3 0 -8 -5 -15 -11 -15 -5 0 -7 5 -4 10 9 14 -28 12 -44 -2 -11
-11 -12 -10 -6 1 6 10 4 12 -6 5 -8 -5 -27 -9 -43 -10 -16 -1 -32 -8 -37 -15
-7 -12 -9 -11 -9 1 0 9 -3 11 -8 5 -4 -5 -20 -11 -36 -12 -16 -1 -36 -9 -45
-18 -13 -11 -20 -12 -29 -3 -9 9 -12 8 -12 -7 0 -17 -2 -18 -10 -5 -8 12 -10
12 -10 -5 0 -13 -3 -16 -8 -8 -8 12 -52 7 -52 -6 0 -4 -6 -8 -12 -8 -37 -2
-72 -14 -84 -30 -9 -12 -13 -13 -14 -5 0 7 -5 10 -10 7 -6 -4 -8 -10 -5 -15 3
-5 0 -12 -6 -16 -8 -5 -9 -3 -4 6 5 8 3 11 -6 8 -8 -3 -13 -12 -11 -19 3 -11
1 -11 -9 -2 -9 9 -21 8 -50 -8 -22 -11 -39 -22 -39 -25 0 -3 5 -2 12 2 7 4 8
3 4 -5 -6 -9 -11 -9 -24 1 -13 11 -15 11 -9 -4 4 -13 1 -16 -14 -13 -13 3 -19
-2 -19 -13 0 -13 -2 -14 -9 -3 -7 10 -12 8 -25 -10 -10 -15 -16 -18 -16 -9 -1
11 -6 8 -20 -8 -10 -13 -23 -24 -27 -25 -4 -1 -7 -4 -6 -7 1 -3 -8 -7 -19 -7
-24 -2 -60 -32 -52 -44 3 -5 -3 -6 -12 -2 -12 4 -15 3 -10 -5 5 -8 0 -12 -13
-12 -24 0 -27 -10 -8 -30 9 -11 8 -11 -7 0 -15 12 -20 12 -23 2 -3 -6 -8 -10
-11 -8 -4 2 -16 -6 -27 -17 -11 -11 -14 -16 -6 -12 9 5 12 4 7 -3 -4 -7 -13
-12 -21 -12 -22 0 -77 -51 -71 -67 4 -8 1 -11 -5 -7 -6 3 -21 -4 -35 -17 -25
-23 -33 -46 -12 -33 7 4 8 3 4 -4 -4 -6 -13 -9 -21 -5 -11 4 -13 1 -9 -11 4
-9 3 -16 -2 -15 -18 3 -37 -1 -32 -7 4 -3 -3 -15 -14 -26 -14 -14 -16 -23 -9
-32 8 -9 7 -13 -4 -13 -8 0 -12 4 -9 9 3 4 1 8 -3 8 -14 0 -45 -59 -37 -72 5
-7 3 -8 -6 -3 -10 6 -12 4 -6 -11 6 -15 5 -16 -5 -7 -10 10 -16 6 -31 -17 -21
-36 -23 -44 -5 -34 9 6 9 5 0 -8 -7 -8 -9 -19 -5 -23 4 -5 1 -5 -6 -1 -7 4 -9
13 -5 19 4 7 -1 6 -10 -2 -13 -11 -15 -17 -6 -28 9 -11 9 -12 -4 -7 -13 4 -15
1 -12 -16 2 -13 2 -20 -1 -17 -4 3 -12 0 -19 -6 -9 -9 -10 -16 -3 -25 8 -9 7
-11 -6 -6 -11 4 -16 1 -16 -11 0 -10 5 -14 13 -9 7 4 9 3 4 -2 -5 -5 -14 -9
-20 -9 -7 0 -13 -10 -15 -22 -2 -13 -7 -23 -12 -23 -5 0 -15 -10 -21 -22 -11
-22 -11 -22 8 -8 10 8 8 5 -5 -7 -13 -13 -20 -23 -16 -23 3 0 1 -7 -6 -15 -6
-8 -9 -19 -5 -25 3 -5 2 -10 -3 -10 -6 0 -13 -7 -16 -16 -3 -8 -2 -12 4 -9 6
3 7 -1 4 -9 -3 -9 -11 -13 -17 -9 -6 4 -8 0 -4 -10 4 -10 1 -17 -6 -17 -8 0
-6 -4 3 -10 13 -8 12 -10 -4 -10 -19 0 -19 0 0 -22 11 -13 12 -17 3 -11 -13
10 -18 7 -31 -22 -8 -19 -11 -32 -7 -29 5 3 9 1 9 -5 0 -5 -6 -12 -12 -15 -10
-5 -10 -7 0 -12 17 -8 15 -25 -3 -18 -11 5 -13 2 -8 -12 5 -13 3 -15 -8 -9 -8
4 -11 5 -7 1 3 -4 0 -25 -7 -46 -10 -29 -11 -41 -2 -50 9 -10 9 -11 0 -6 -17
9 -17 -6 0 -23 10 -10 9 -11 -3 -6 -16 6 -20 -5 -23 -67 -1 -16 -5 -28 -9 -28
-3 0 -5 -8 -3 -17 1 -10 -2 -24 -8 -30 -6 -9 -5 -13 4 -13 11 0 11 -2 -1 -10
-13 -9 -13 -10 0 -10 13 0 13 -1 0 -10 -12 -8 -13 -13 -2 -30 7 -11 9 -20 5
-19 -22 4 -24 -3 -7 -23 14 -17 15 -19 2 -10 -14 12 -17 11 -17 -5 0 -10 -2
-30 -4 -45 -2 -17 0 -28 7 -28 7 0 6 -4 -2 -9 -7 -4 -13 -23 -13 -42 -4 -610
-4 -1019 1 -1019 3 0 4 -16 2 -36 -3 -28 -1 -35 8 -29 10 6 11 4 4 -6 -15 -24
-12 -60 6 -54 12 4 12 2 -2 -8 -10 -8 -14 -18 -8 -27 4 -7 6 -20 2 -28 -4 -11
-1 -13 9 -7 11 6 11 5 2 -5 -12 -13 -7 -40 11 -52 7 -5 3 -8 -8 -8 -20 0 -20
0 0 -16 10 -8 13 -13 7 -9 -7 3 -13 2 -13 -4 0 -5 6 -12 13 -14 9 -4 9 -8 -2
-15 -7 -5 -9 -12 -4 -15 5 -3 10 -23 11 -43 2 -21 8 -42 15 -46 9 -6 8 -8 -3
-9 -10 0 -8 -3 5 -9 11 -5 15 -9 8 -9 -6 -1 -10 -10 -8 -21 6 -30 15 -41 27
-34 7 4 8 2 4 -5 -4 -6 -11 -9 -16 -6 -5 3 -5 -8 0 -24 4 -16 5 -33 2 -37 -4
-4 2 -4 12 0 15 5 17 4 8 -7 -12 -14 -5 -60 8 -52 4 2 5 -8 2 -23 -5 -25 -4
-26 13 -12 12 10 16 10 11 2 -4 -7 -3 -19 4 -27 8 -10 8 -15 -1 -21 -8 -5 -9
-3 -4 6 5 9 4 11 -4 6 -8 -5 -9 -12 -2 -19 5 -7 13 -27 18 -46 5 -19 15 -37
22 -39 9 -3 11 0 6 8 -6 9 -4 11 5 5 10 -6 9 -11 -5 -22 -18 -12 -13 -18 10
-13 6 1 5 -4 -2 -11 -10 -10 -9 -15 5 -26 9 -8 11 -12 5 -8 -9 4 -11 1 -7 -9
3 -9 14 -16 23 -16 12 0 13 -2 3 -8 -7 -5 -10 -16 -6 -25 3 -9 11 -14 16 -11
6 4 8 1 6 -7 -8 -20 11 -51 25 -42 7 4 5 -2 -3 -12 -14 -17 -13 -18 2 -12 12
4 15 2 12 -8 -9 -22 15 -57 34 -50 13 5 14 3 5 -6 -8 -8 -9 -18 -1 -35 9 -20
14 -22 26 -11 13 10 14 9 3 -10 -7 -13 -8 -23 -2 -23 5 0 13 -9 16 -21 5 -15
10 -17 19 -9 10 8 12 5 8 -15 -2 -15 0 -25 7 -25 6 0 11 -6 11 -14 0 -8 10
-22 22 -30 12 -9 18 -16 13 -16 -6 0 -2 -5 8 -11 10 -6 14 -15 10 -22 -4 -8
-1 -7 9 1 14 11 16 11 12 -5 -6 -22 138 -179 155 -169 6 4 9 2 6 -6 -2 -7 16
-29 41 -48 24 -19 50 -40 58 -47 7 -7 16 -9 20 -6 3 4 6 -1 6 -11 0 -9 5 -14
10 -11 6 3 10 1 10 -4 0 -6 9 -11 19 -11 11 0 23 -5 27 -12 4 -7 3 -8 -4 -4
-7 4 -12 5 -12 2 0 -3 10 -10 21 -17 17 -9 20 -8 15 3 -4 7 1 3 10 -10 9 -12
23 -22 30 -22 8 0 14 -5 14 -12 0 -6 10 -3 23 8 12 10 16 12 10 4 -15 -16 -17
-34 -4 -26 5 3 12 -1 15 -10 3 -8 10 -12 16 -9 5 3 10 2 10 -4 0 -6 8 -8 18
-4 9 3 14 2 9 -2 -12 -13 95 -62 111 -51 9 7 12 5 10 -5 -2 -8 3 -13 10 -12 6
2 12 -2 12 -8 0 -8 6 -7 17 2 11 10 14 10 9 2 -6 -12 5 -18 27 -14 4 0 7 -7 7
-16 0 -15 2 -14 15 3 12 15 14 15 9 2 -5 -14 0 -16 28 -13 18 2 27 1 21 -2 -7
-2 -13 -9 -13 -14 0 -4 7 -6 15 -3 9 4 15 0 15 -7 0 -11 3 -11 10 1 5 8 10 10
10 3 0 -10 81 -35 124 -37 12 -1 23 -4 26 -7 10 -12 73 -22 66 -10 -4 6 -2 11
3 11 6 0 11 -6 11 -13 0 -13 27 -19 88 -20 17 0 32 -5 32 -11 0 -6 5 -4 10 4
6 10 10 11 10 3 0 -7 7 -13 16 -13 8 0 13 4 10 8 -3 5 1 9 8 9 8 0 12 -6 9
-12 -3 -9 6 -12 29 -10 18 2 37 0 42 -3 15 -9 57 -9 62 0 3 4 11 8 17 8 8 0 7
-3 -2 -9 -9 -6 7 -10 48 -13 35 -1 65 0 68 5 2 4 12 3 21 -1 9 -5 46 -8 82 -6
36 1 82 2 103 3 24 1 36 5 32 12 -4 6 2 5 13 -2 16 -10 23 -10 35 0 9 7 18 8
21 3 8 -14 72 2 68 17 -1 7 2 10 8 6 6 -3 8 -11 5 -16 -8 -13 66 0 84 14 11 9
13 9 8 0 -7 -12 17 -12 29 -1 3 4 13 4 22 1 10 -4 13 -2 8 5 -3 6 -2 13 4 17
5 3 10 -2 10 -12 1 -17 2 -17 15 1 8 11 15 14 15 8 0 -16 21 -11 38 8 10 11
12 12 6 1 -6 -11 -3 -13 12 -7 10 5 28 9 39 10 11 1 19 7 17 14 -1 9 3 9 19 0
17 -11 23 -11 26 0 3 6 10 9 16 5 7 -4 8 0 4 13 -7 18 -7 18 8 0 14 -19 21
-11 16 17 -1 5 3 6 9 2 6 -3 8 -11 5 -16 -4 -5 3 -5 17 0 13 5 28 10 33 11 43
11 64 23 58 33 -4 7 1 6 10 -2 15 -12 17 -11 17 3 0 9 5 16 11 16 5 0 7 -4 4
-10 -4 -6 2 -7 17 -1 13 5 22 14 21 19 -2 6 5 9 15 7 10 -1 31 3 47 9 17 7 34
12 38 12 5 -1 15 10 24 24 8 14 12 17 9 8 -4 -15 -2 -16 19 -6 14 6 25 15 25
20 0 4 7 8 15 8 8 0 15 5 15 11 0 5 -5 7 -12 3 -7 -4 -8 -3 -4 5 6 9 11 9 22
0 11 -9 14 -9 14 0 0 7 5 9 10 6 6 -3 10 -1 10 5 0 6 5 8 10 5 6 -3 10 -3 10
2 0 4 14 14 31 22 17 7 34 23 39 35 5 11 9 16 9 9 1 -8 10 -7 30 5 16 9 29 21
28 27 -1 5 4 9 12 7 9 -2 11 3 7 13 -3 9 -2 13 4 10 5 -3 19 -1 31 6 18 9 19
13 8 21 -11 7 -9 9 7 5 15 -3 33 8 62 38 22 24 44 40 48 36 3 -3 4 5 0 19 -3
14 -3 19 0 12 5 -10 12 -8 30 9 13 12 21 26 17 32 -3 6 -1 7 5 3 13 -8 47 38
38 52 -3 5 1 9 9 9 8 0 11 -5 8 -11 -3 -6 8 5 25 24 17 19 31 41 32 48 0 6 5
12 12 12 6 0 3 7 -8 15 -16 13 -16 14 -1 9 20 -7 50 13 41 28 -4 6 -1 14 7 18
10 7 10 12 -1 27 -12 15 -12 16 0 5 22 -19 31 -14 28 16 -2 22 1 26 16 24 17
-3 18 -2 6 13 -7 9 -9 15 -4 14 19 -3 34 1 34 12 0 5 -6 7 -12 3 -10 -6 -10
-5 -1 8 7 8 9 19 5 23 -4 5 -2 5 4 2 14 -8 47 60 34 68 -6 3 -10 12 -9 18 0 9
2 9 6 0 2 -7 9 -13 14 -13 6 0 7 5 4 10 -3 6 -1 10 6 10 7 0 10 3 6 6 -3 4 0
19 9 35 8 16 12 29 8 29 -4 0 0 8 7 17 8 9 9 14 3 10 -6 -3 -11 0 -11 7 0 8 6
12 12 10 6 -3 12 2 12 10 0 8 -5 12 -11 9 -6 -4 -3 3 7 14 19 22 22 44 6 60
-8 8 -7 13 2 18 8 5 10 4 5 -3 -4 -7 -2 -12 3 -12 15 0 14 13 -1 29 -7 7 -8
11 -3 9 6 -2 10 1 10 7 0 5 -39 9 -90 10 -68 0 -93 -3 -103 -15 -11 -13 -11
-13 -7 1 4 10 0 16 -10 16 -8 0 -15 -4 -15 -9 0 -4 -5 -8 -11 -8 -5 0 -7 4 -4
10 3 5 1 10 -4 10 -6 0 -11 -6 -11 -12 0 -9 -3 -9 -9 1 -8 12 -12 11 -27 -3
-15 -15 -19 -16 -28 -5 -12 15 -146 21 -146 7 0 -5 -5 -8 -11 -8 -5 0 -7 5 -4
10 3 5 1 10 -4 10 -6 0 -11 -6 -11 -12 0 -8 -3 -9 -8 -3 -9 13 -75 13 -84 0
-5 -6 -8 -5 -8 3 0 6 -4 12 -10 12 -5 0 -7 -8 -4 -18 5 -15 4 -15 -8 -2 -13
15 -91 23 -82 8 3 -4 0 -8 -5 -8 -6 0 -11 -4 -11 -10 0 -5 7 -7 15 -4 8 4 15
1 15 -5 0 -6 -3 -10 -7 -10 -30 5 -35 -2 -17 -23 17 -20 17 -21 1 -8 -16 12
-20 12 -27 -1 -6 -8 -5 -18 0 -23 13 -13 13 -26 -1 -26 -5 0 -7 5 -4 10 3 6 3
10 -2 10 -4 0 -13 -11 -19 -24 -10 -21 -9 -24 5 -20 9 3 6 -1 -6 -7 -13 -7
-23 -18 -23 -26 0 -7 -5 -13 -11 -13 -6 0 -8 -7 -5 -16 4 -10 2 -13 -6 -8 -7
5 -9 2 -6 -8 4 -8 2 -21 -4 -29 -8 -11 -9 -10 -4 4 8 24 -6 21 -23 -4 -10 -16
-10 -23 -1 -29 8 -5 7 -9 -5 -13 -9 -4 -13 -3 -10 3 3 6 2 10 -3 10 -17 0 -22
-13 -10 -27 9 -12 9 -14 -3 -13 -23 4 -43 0 -36 -6 9 -9 -16 -33 -28 -26 -5 3
-4 -2 4 -11 12 -15 12 -17 0 -12 -14 5 -42 -11 -85 -51 -12 -12 -26 -19 -30
-15 -4 3 -4 -3 0 -13 6 -17 5 -17 -11 -5 -15 12 -16 12 -10 -3 4 -13 2 -15
-10 -11 -10 4 -14 2 -9 -5 3 -6 1 -14 -5 -18 -8 -4 -9 -3 -5 4 4 7 2 12 -3 12
-6 0 -11 -5 -11 -11 0 -5 -4 -8 -9 -4 -5 3 -16 -1 -24 -9 -8 -8 -18 -12 -22
-8 -5 4 -5 -2 -1 -12 6 -16 4 -17 -10 -6 -9 8 -18 10 -22 4 -11 -14 -47 -40
-39 -28 4 7 -8 5 -28 -4 -19 -9 -31 -20 -28 -25 3 -6 1 -7 -6 -3 -17 11 -53
-3 -44 -17 4 -7 0 -6 -10 1 -14 12 -19 12 -32 -2 -17 -17 -30 -22 -21 -8 3 5
-10 4 -29 -2 -19 -6 -35 -15 -35 -21 0 -5 -4 -4 -8 3 -5 7 -16 10 -25 6 -9 -3
-15 -9 -12 -13 2 -4 -10 -5 -27 -3 -24 4 -29 2 -23 -9 7 -11 6 -12 -6 -3 -18
15 -46 10 -69 -11 -14 -12 -20 -13 -26 -4 -4 7 -3 10 4 5 6 -3 13 -2 17 4 10
17 -58 7 -75 -10 -8 -9 -11 -10 -6 -3 6 9 3 13 -12 13 -11 0 -23 -6 -25 -12
-4 -10 -6 -10 -6 0 -1 6 -6 12 -12 12 -5 0 -7 -6 -3 -12 6 -10 5 -10 -7 -1
-14 11 -68 11 -88 -1 -6 -4 -11 -3 -11 2 0 5 -11 10 -25 10 -13 0 -23 -3 -21
-7 3 -4 -4 -7 -14 -7 -10 0 -17 4 -14 7 2 4 -9 7 -24 7 -16 -1 -34 2 -41 6 -6
4 -11 2 -11 -5 0 -8 -4 -8 -15 1 -12 10 -15 10 -15 -1 0 -12 -2 -12 -9 0 -5 8
-16 11 -25 8 -9 -4 -16 -2 -16 3 0 6 -5 10 -11 10 -5 0 -7 -6 -3 -13 6 -9 5
-9 -7 0 -9 7 -30 13 -47 15 -18 1 -32 7 -33 13 0 5 -4 1 -9 -10 -7 -15 -9 -16
-9 -4 -1 10 -12 19 -27 22 -19 3 -24 1 -20 -10 3 -8 1 -11 -4 -8 -6 3 -10 12
-10 19 0 11 -75 38 -110 40 -8 0 -17 3 -20 7 -3 4 -28 18 -57 32 -35 17 -54
21 -57 13 -3 -7 -5 -6 -5 2 -1 7 -5 10 -11 7 -5 -3 -7 0 -4 9 4 11 -1 14 -19
12 -17 -2 -24 2 -23 13 1 12 -7 15 -29 14 -20 -2 -25 1 -16 6 9 6 10 11 2 15
-6 4 -15 4 -21 1 -6 -3 -10 4 -10 17 0 18 -2 20 -10 8 -9 -13 -10 -13 -10 0 0
17 -37 45 -59 45 -8 0 -16 7 -18 15 -4 13 -3 13 7 0 10 -13 11 -13 7 0 -2 8
-10 14 -17 12 -6 -1 -14 7 -17 18 -5 18 -15 25 -36 21 -5 -1 -6 3 -2 9 3 5 -1
13 -9 16 -8 3 -18 14 -21 25 -4 10 -11 19 -16 19 -6 0 -7 -4 -4 -10 3 -5 1
-10 -5 -10 -7 0 -9 8 -5 22 6 17 4 20 -10 14 -16 -6 -16 -4 -4 11 9 11 10 14
2 9 -8 -4 -13 -2 -13 4 0 6 -5 8 -11 5 -6 -4 -9 0 -7 11 2 12 -2 18 -10 16 -8
-1 -11 2 -7 7 7 12 -20 59 -44 79 -9 7 -16 16 -16 20 0 9 -47 106 -54 112 -3
3 -8 14 -9 25 -2 11 -8 24 -13 30 -5 5 -9 17 -9 27 0 10 -8 18 -17 19 -11 0
-13 3 -5 6 6 2 9 10 5 16 -4 7 -9 21 -10 31 -5 27 -23 47 -36 39 -6 -3 -7 -1
-3 6 4 6 13 8 19 4 7 -3 3 4 -8 17 -11 13 -14 20 -6 15 11 -6 13 -4 8 9 -4 10
-7 21 -7 24 0 4 -5 0 -10 -8 -7 -12 -9 -10 -7 7 0 12 5 19 9 17 14 -9 8 9 -9
29 -10 12 -12 17 -4 12 9 -5 12 -3 9 6 -3 8 -12 13 -19 11 -8 -1 -5 4 5 13 20
15 20 15 0 15 -16 0 -17 2 -4 10 9 6 11 10 3 10 -7 0 -10 7 -7 15 4 9 0 15 -7
15 -9 0 -10 3 -4 8 6 4 10 19 11 35 0 28 -11 36 -19 15 -4 -10 -6 -10 -6 -1
-1 6 4 15 9 18 6 3 10 14 10 23 0 15 -2 15 -10 2 -13 -21 -13 -3 1 22 10 18 9
20 -5 15 -8 -3 -18 -1 -22 5 -4 6 -3 8 3 5 15 -9 34 16 24 32 -5 7 -7 33 -4
58 3 33 1 43 -8 37 -8 -4 -9 -3 -5 5 11 18 18 63 8 57 -5 -3 -9 1 -9 9 0 8 4
12 8 10 4 -3 6 21 5 53 -2 48 10 133 13 93 1 -9 5 -10 14 -3 6 5 29 8 50 7 23
-2 35 0 31 7 -4 6 2 6 14 -1 11 -6 23 -11 27 -11 3 0 3 5 -1 11 -4 8 -1 8 12
2 23 -11 34 -11 53 1 10 6 12 5 7 -2 -4 -7 -2 -12 3 -12 6 0 11 5 11 10 0 6 5
10 11 10 5 0 7 -5 4 -10 -3 -6 -1 -10 4 -10 6 0 11 6 11 13 0 8 3 9 8 1 4 -6
15 -10 25 -8 9 1 17 -3 17 -9 0 -6 7 -2 16 9 8 10 13 13 9 7 -3 -7 -1 -13 4
-13 6 0 11 4 11 9 0 14 29 21 36 9 4 -6 3 -8 -4 -4 -6 3 -13 2 -16 -3 -8 -12
64 -8 83 4 10 5 12 4 7 -3 -4 -7 -2 -12 3 -12 6 0 11 5 11 10 0 6 5 10 11 10
5 0 7 -4 4 -10 -3 -5 -1 -10 4 -10 6 0 11 6 11 13 0 8 3 8 8 2 9 -13 42 -13
61 -1 10 6 12 5 7 -2 -10 -17 3 -15 20 3 13 12 19 13 37 2 25 -15 36 -16 56
-3 10 6 12 5 7 -2 -4 -7 -3 -12 3 -12 5 0 12 6 14 13 4 9 6 9 6 0 1 -7 9 -13
19 -12 10 0 12 3 5 6 -7 2 -13 9 -13 15 0 6 8 4 18 -4 9 -8 26 -18 36 -22 17
-6 17 -5 5 10 -13 16 -12 16 8 6 27 -15 36 -15 27 -1 -4 8 -1 8 12 1 11 -5 35
-8 54 -7 19 1 44 -2 55 -8 18 -9 19 -9 5 8 -14 17 -14 17 7 7 27 -15 36 -15
27 -1 -4 8 -1 8 12 2 23 -12 114 -11 133 1 10 6 12 5 7 -2 -4 -7 -2 -12 3 -12
6 0 11 4 11 9 0 14 29 21 36 9 4 -6 3 -8 -4 -4 -6 3 -13 2 -16 -3 -8 -12 64
-8 83 4 10 5 12 4 7 -3 -4 -7 -2 -12 3 -12 6 0 11 5 11 10 0 6 4 10 10 10 5 0
7 -8 4 -17 -5 -15 -3 -15 10 1 9 11 16 15 16 9 0 -12 39 -11 59 1 10 6 12 5 7
-2 -4 -7 -3 -12 3 -12 5 0 12 6 14 13 4 10 6 10 6 0 1 -7 5 -13 11 -13 5 0 7
8 4 18 -5 15 -4 15 6 -1 10 -15 14 -16 28 -5 12 10 14 10 8 1 -4 -7 -2 -13 3
-13 6 0 11 4 11 9 0 14 29 21 36 9 4 -6 3 -8 -4 -4 -6 3 -13 2 -17 -4 -4 -6 6
-9 27 -6 18 2 38 0 44 -6 8 -5 18 -3 28 7 9 9 16 12 16 7 0 -13 71 -12 89 2
11 8 13 8 7 -1 -4 -7 -2 -13 3 -13 6 0 11 6 11 13 0 8 3 8 8 1 4 -6 16 -14 26
-18 20 -7 20 -7 0 15 l-19 23 25 -17 c28 -19 44 -22 34 -6 -4 8 -1 8 12 1 11
-5 35 -8 54 -7 19 1 44 -2 55 -8 18 -9 19 -9 5 8 -14 17 -14 17 7 7 28 -15 36
-15 27 0 -5 7 -3 8 6 3 20 -12 121 -14 113 -3 -3 6 2 7 13 1 23 -11 34 -11 53
1 10 6 12 5 7 -2 -4 -7 -2 -12 3 -12 6 0 11 5 11 10 0 6 5 10 11 10 5 0 7 -4
4 -10 -3 -5 -1 -10 4 -10 6 0 11 6 11 13 0 8 3 9 8 1 4 -6 15 -10 25 -8 9 1
17 -3 17 -9 0 -6 7 -2 16 9 8 10 13 13 9 7 -3 -7 -1 -13 4 -13 6 0 11 4 11 9
0 14 29 21 36 9 4 -6 3 -8 -4 -4 -6 3 -13 2 -16 -3 -8 -12 64 -8 83 4 10 5 12
4 7 -3 -4 -7 -2 -12 3 -12 6 0 11 5 11 10 0 6 5 10 11 10 5 0 7 -5 4 -10 -3
-5 -1 -10 4 -10 6 0 11 6 11 13 0 8 3 8 8 2 9 -13 42 -13 61 -1 10 6 12 5 7
-2 -10 -17 3 -15 20 3 13 12 19 13 37 2 25 -15 36 -16 56 -3 10 6 12 5 7 -2
-4 -7 -3 -12 3 -12 5 0 12 6 14 13 4 10 6 10 6 0 1 -7 9 -13 19 -12 10 0 12 3
5 6 -7 2 -13 9 -13 15 0 6 8 4 18 -4 9 -8 26 -18 36 -22 17 -6 17 -5 5 10 -13
16 -12 16 8 6 27 -15 36 -15 27 -1 -4 8 -1 8 12 1 11 -5 35 -8 54 -7 19 1 44
-2 55 -8 18 -9 19 -9 5 8 -14 17 -14 17 7 7 27 -15 36 -15 27 -1 -4 8 -1 8 12
2 23 -12 114 -11 133 1 10 6 12 5 7 -2 -4 -7 -2 -12 3 -12 6 0 11 6 11 13 0 8
3 8 8 1 9 -13 80 -15 88 -2 3 5 15 2 27 -9 11 -10 17 -12 13 -5 -5 9 -3 13 5
11 37 -5 50 14 24 33 -6 5 -6 8 1 8 16 0 16 210 0 210 -8 0 -8 2 0 8 14 8 14
249 1 270 -5 6 -4 12 0 12 12 0 14 38 2 46 -6 4 -6 11 2 20 6 8 8 14 3 14 -5
0 -10 39 -12 87 -2 55 -7 90 -15 95 -9 6 -8 8 3 8 13 0 13 1 0 10 -8 5 -11 10
-6 10 5 0 3 7 -4 15 -11 13 -10 14 4 9 22 -8 20 1 -5 25 -15 14 -17 21 -8 26
8 5 10 4 5 -3 -4 -7 -2 -12 3 -12 6 0 11 7 11 15 0 8 -7 15 -15 15 -17 0 -20
16 -6 24 7 5 8 41 1 41 -2 0 -10 77 -11 98 0 9 -5 17 -10 17 -5 0 -9 6 -8 13
4 29 -2 68 -9 64 -4 -3 -8 7 -9 21 0 15 -4 38 -8 52 -3 14 -8 32 -9 40 -2 8
-8 14 -13 13 -5 -1 -10 8 -10 20 -2 18 0 19 8 7 9 -12 10 -12 5 3 -3 10 -6 21
-6 23 0 3 -4 3 -9 0 -4 -3 -6 6 -3 19 2 15 0 25 -7 25 -7 0 -11 6 -10 13 3 26
-1 38 -12 31 -7 -4 -9 0 -5 14 4 11 1 26 -6 33 -7 8 -14 23 -16 34 -5 33 -24
75 -34 75 -5 0 -8 6 -5 13 2 6 -6 28 -18 47 -23 37 -39 71 -37 80 0 3 -9 17
-20 30 -11 14 -16 18 -12 10 7 -13 5 -13 -9 -1 -18 15 -23 26 -7 16 18 -11 11
10 -11 33 -11 12 -24 20 -29 17 -5 -3 -11 -1 -15 4 -3 6 3 8 15 6 18 -4 17 1
-11 41 -16 24 -34 42 -38 39 -5 -2 -8 3 -7 13 0 9 -5 16 -12 14 -8 -1 -11 2
-7 8 3 5 1 10 -5 10 -6 0 -8 5 -5 10 3 6 2 10 -2 10 -5 0 -13 10 -18 23 -6 12
-18 21 -27 21 -10 -1 -15 2 -12 7 3 5 0 9 -6 9 -6 0 -9 4 -6 9 7 11 -19 33
-28 24 -4 -4 -4 1 0 11 4 11 3 17 -2 14 -5 -3 -18 4 -29 15 -11 11 -14 16 -6
12 9 -5 12 -4 7 3 -4 7 -14 12 -23 12 -9 0 -14 3 -10 6 7 8 -46 54 -63 54 -6
0 -8 5 -4 12 5 8 2 9 -9 5 -10 -4 -16 -2 -14 6 1 7 -6 11 -15 11 -10 -1 -14 4
-11 12 3 8 0 14 -5 14 -6 0 -23 11 -38 25 -15 14 -33 25 -40 25 -7 0 -17 6
-21 13 -4 7 -20 20 -35 30 -25 16 -27 16 -21 0 4 -11 3 -14 -5 -9 -7 4 -12 13
-12 19 0 7 -14 20 -31 29 -18 11 -27 13 -24 5 4 -6 -1 -3 -9 7 -14 18 -21 15
-17 -7 1 -5 -3 -5 -9 -2 -6 4 -9 13 -6 20 3 8 -4 16 -17 20 -12 3 -32 11 -45
18 -19 9 -25 8 -34 -3 -8 -12 -9 -12 -4 2 6 20 -9 34 -19 17 -5 -7 -16 -2 -33
13 -14 13 -22 16 -18 8 4 -8 -1 -5 -12 7 -22 25 -39 19 -19 -6 11 -14 10 -14
-5 -2 -10 7 -15 18 -11 24 4 7 -5 8 -28 4 -20 -4 -29 -4 -21 2 10 6 5 11 -19
20 l-32 11 19 -22 c12 -15 8 -14 -12 5 -17 15 -34 24 -37 20 -11 -11 -38 -13
-31 -2 3 5 11 6 17 3 7 -4 9 -3 4 1 -4 5 -15 10 -25 11 -9 1 -30 5 -47 9 -16
4 -42 8 -57 8 -16 1 -28 5 -28 9 0 4 -5 8 -11 8 -5 0 -8 -4 -4 -10 3 -5 -6 -3
-20 4 -14 7 -39 12 -55 10 -17 -2 -30 1 -30 7 0 6 -5 7 -10 4 -6 -4 -8 -12 -4
-18 3 -7 -2 -3 -11 8 -13 16 -19 17 -35 7 -14 -8 -21 -9 -26 0 -5 7 -3 8 6 3
8 -5 11 -4 7 2 -9 15 -77 9 -89 -8 -8 -11 -9 -10 -4 4 5 14 0 17 -27 15 -17
-1 -38 -6 -45 -11 -7 -6 -12 -6 -11 -1 4 21 -2 26 -17 13 -13 -10 -17 -10 -25
2 -6 10 -9 11 -9 1 0 -7 -4 -11 -9 -8 -5 4 -12 0 -14 -6 -3 -8 -6 -6 -6 5 -1
17 -12 22 -24 10z m253 -19 c0 -8 -19 -13 -24 -6 -3 5 1 9 9 9 8 0 15 -2 15
-3z m-695 -43 c3 -5 2 -12 -3 -15 -5 -3 -9 1 -9 9 0 17 3 19 12 6z m-321 -97
c3 -8 2 -12 -4 -9 -6 3 -10 10 -10 16 0 14 7 11 14 -7z m-114 -44 c0 -5 -5
-10 -11 -10 -5 0 -7 5 -4 10 3 6 8 10 11 10 2 0 4 -4 4 -10z m2014 -106 c3 -8
2 -12 -4 -9 -6 3 -10 10 -10 16 0 14 7 11 14 -7z m61 -34 c3 -5 1 -10 -4 -10
-6 0 -11 5 -11 10 0 6 2 10 4 10 3 0 8 -4 11 -10z m165 -134 c0 -3 -4 -8 -10
-11 -5 -3 -10 -1 -10 4 0 6 5 11 10 11 6 0 10 -2 10 -4z m-2704 -38 c4 -7 3
-8 -4 -4 -7 4 -12 2 -12 -3 0 -6 -5 -11 -11 -11 -8 0 -8 5 1 15 15 18 17 18
26 3z m1304 -102 c0 -3 -4 -8 -10 -11 -5 -3 -10 -1 -10 4 0 6 5 11 10 11 6 0
10 -2 10 -4z m143 -20 c29 -1 47 2 47 8 0 8 2 8 8 0 9 -14 42 -26 42 -15 0 4
7 8 15 8 8 0 12 -4 9 -9 -5 -7 39 -13 79 -10 9 1 17 -3 17 -10 0 -6 10 -3 22
8 15 13 18 14 10 3 -11 -15 -8 -18 25 -24 21 -4 40 -7 43 -7 3 0 11 -4 18 -10
6 -6 12 -7 12 -3 0 4 7 2 15 -5 12 -10 18 -10 29 -1 11 9 16 9 22 0 4 -8 3 -9
-4 -5 -7 4 -12 3 -12 -3 0 -6 12 -14 28 -17 15 -4 34 -13 42 -20 8 -7 17 -13
20 -14 32 -6 50 -14 50 -22 0 -5 4 -7 9 -4 5 3 12 -1 15 -10 5 -13 9 -14 22
-3 8 7 14 8 13 3 -1 -5 -1 -16 0 -24 1 -12 3 -13 10 -1 7 11 10 9 16 -8 3 -11
11 -21 16 -21 6 0 8 4 4 9 -3 5 -1 13 5 16 6 4 10 3 9 -2 -4 -22 2 -43 11 -38
6 3 10 1 10 -5 0 -6 5 -8 10 -5 6 3 10 1 10 -6 0 -16 30 -49 43 -49 6 0 2 7
-9 16 -18 15 -18 15 2 5 12 -6 24 -8 27 -5 3 3 3 -3 0 -14 -3 -13 3 -25 16
-34 12 -8 18 -19 13 -24 -4 -4 0 -3 10 4 12 10 18 10 24 1 4 -8 3 -9 -4 -5 -7
4 -12 4 -12 -1 0 -12 20 -39 20 -28 0 6 11 -8 24 -30 12 -22 28 -39 34 -38 7
2 12 -2 12 -8 0 -5 5 -7 12 -3 7 4 8 3 4 -5 -4 -6 -13 -9 -19 -5 -7 3 -4 -1 6
-9 9 -8 17 -19 17 -26 0 -6 10 -12 23 -12 17 -1 18 -2 4 -6 -14 -4 -16 -8 -6
-19 8 -10 15 -11 24 -4 10 8 15 8 21 -1 4 -7 3 -9 -3 -6 -6 4 -16 0 -22 -7
-14 -17 2 -31 22 -20 6 4 9 4 5 -1 -4 -4 -2 -15 5 -24 11 -14 10 -14 -6 -2
-15 12 -17 12 -11 -3 3 -9 14 -16 23 -16 14 0 14 -2 1 -10 -14 -9 -7 -14 13
-11 5 1 6 -3 2 -9 -3 -6 1 -24 9 -42 9 -17 16 -39 16 -48 0 -25 11 -31 29 -18
13 10 14 10 4 -2 -14 -15 -18 -50 -5 -50 4 0 9 -12 10 -27 1 -15 9 -31 17 -36
8 -4 15 -13 15 -20 0 -7 -4 -6 -10 3 -8 13 -10 12 -10 -2 0 -10 8 -18 18 -19
10 0 12 -3 5 -6 -7 -2 -13 -12 -13 -20 0 -13 2 -13 17 -2 15 13 15 12 5 -7
-12 -22 -6 -60 12 -83 8 -11 8 -13 -1 -7 -7 4 -13 2 -13 -3 0 -6 5 -11 12 -11
6 0 8 -3 5 -7 -4 -3 1 -16 10 -27 12 -14 13 -17 3 -9 -14 10 -15 7 -12 -22 3
-23 8 -32 16 -28 6 4 5 -1 -3 -10 -13 -16 -8 -22 14 -17 5 1 2 -7 -7 -17 -12
-13 -14 -23 -8 -33 5 -8 7 -23 4 -32 -3 -10 0 -18 6 -18 6 0 8 6 4 13 -4 6 -3
8 1 4 15 -13 14 -36 -1 -30 -10 4 -12 0 -8 -12 7 -16 8 -53 5 -131 -1 -19 -7
-34 -17 -38 -10 -4 -13 -2 -8 7 4 6 -2 3 -14 -7 -21 -18 -22 -18 -22 -1 0 14
-3 15 -15 5 -8 -7 -15 -8 -15 -3 0 5 -9 9 -19 9 -11 0 -17 -4 -15 -8 3 -4 0
-8 -5 -8 -6 0 -11 6 -11 13 0 8 -4 7 -10 -3 -5 -8 -10 -10 -10 -5 0 6 -5 3
-10 -5 -9 -13 -10 -13 -10 0 0 11 -9 15 -27 14 -18 -1 -27 -6 -25 -15 2 -8 -5
-6 -19 6 -12 11 -20 15 -16 10 3 -7 -9 -11 -33 -11 -21 0 -37 2 -35 6 2 3 -5
6 -16 6 -10 0 -19 -4 -19 -9 0 -4 -6 -5 -12 -1 -23 14 -49 12 -43 -4 4 -12 3
-12 -9 -3 -11 9 -15 9 -19 -1 -3 -8 -6 -6 -6 6 -1 15 -4 16 -15 7 -10 -9 -16
-9 -21 -1 -5 8 -11 8 -21 -1 -11 -9 -14 -8 -14 2 0 8 -6 5 -15 -7 -8 -10 -15
-14 -14 -9 3 22 -2 27 -16 15 -11 -9 -15 -9 -15 -1 0 7 -5 9 -10 6 -6 -4 -8
-11 -5 -16 11 -16 -7 -9 -21 9 -13 16 -13 16 -14 -3 -1 -19 -1 -19 -11 -2 -9
15 -13 16 -26 6 -12 -10 -16 -10 -24 2 -6 10 -9 11 -9 1 0 -7 -4 -11 -9 -8 -5
4 -12 0 -14 -6 -4 -9 -6 -8 -6 2 -1 11 -10 15 -28 14 -18 -1 -27 -6 -25 -15 2
-8 -5 -6 -19 6 -12 11 -19 14 -14 6 6 -11 4 -13 -10 -8 -9 4 -25 2 -33 -5 -11
-9 -14 -9 -9 -1 4 6 3 14 -3 18 -5 3 -10 1 -10 -5 0 -6 -5 -8 -12 -4 -8 5 -9
2 -5 -10 4 -10 3 -15 -3 -11 -6 3 -10 13 -10 21 0 17 -12 18 -28 2 -10 -10
-15 -10 -22 2 -9 14 -11 13 -14 -9 0 -5 -5 -13 -9 -18 -5 -4 -8 -3 -7 2 5 23
-1 31 -25 30 -14 -1 -28 -5 -32 -8 -9 -10 -25 -9 -19 1 3 5 -5 8 -17 7 -13 -2
-21 -8 -19 -16 2 -8 -5 -6 -19 6 -12 11 -19 14 -14 6 6 -11 4 -13 -10 -8 -9 4
-25 2 -33 -5 -11 -9 -14 -9 -9 -1 4 6 3 14 -3 18 -5 3 -10 1 -10 -5 0 -6 -5
-8 -12 -4 -8 5 -9 2 -5 -10 4 -10 3 -15 -3 -11 -6 3 -10 14 -10 23 0 15 -2 15
-10 2 -9 -13 -10 -13 -10 0 0 13 -1 13 -10 0 -5 -8 -10 -10 -10 -5 0 6 -5 3
-10 -5 -9 -13 -10 -13 -10 0 0 11 -9 15 -27 14 -18 -1 -27 -6 -25 -15 2 -8 -5
-6 -19 6 -12 11 -20 15 -16 10 3 -7 -9 -11 -33 -11 -21 0 -37 2 -35 6 2 3 -5
6 -16 6 -10 0 -19 -5 -19 -11 0 -5 -5 -3 -10 5 -8 13 -10 12 -10 -3 0 -17 -1
-17 -16 -3 -20 20 -28 20 -20 1 5 -13 2 -13 -19 1 -23 15 -30 12 -25 -11 1 -5
-9 -1 -21 10 -12 11 -19 14 -14 6 6 -11 4 -13 -10 -8 -9 4 -25 2 -33 -5 -11
-9 -14 -9 -9 -1 4 6 3 14 -3 18 -5 3 -10 1 -10 -5 0 -6 -5 -8 -12 -4 -8 5 -9
2 -5 -10 4 -10 3 -15 -3 -11 -6 3 -10 14 -10 23 0 15 -2 15 -10 2 -9 -13 -10
-13 -10 0 0 13 -1 13 -10 0 -5 -8 -10 -10 -10 -5 0 6 -5 3 -10 -5 -9 -13 -10
-13 -10 0 0 11 -9 15 -27 14 -18 -1 -27 -6 -25 -15 2 -8 -5 -6 -19 6 -12 11
-20 15 -16 10 3 -7 -9 -11 -33 -11 -21 0 -37 2 -35 6 2 3 -5 6 -16 6 -10 0
-19 -4 -19 -9 0 -4 -6 -5 -12 -1 -23 14 -49 12 -43 -4 4 -11 2 -12 -8 -4 -7 6
-26 9 -41 6 -15 -2 -25 -1 -23 4 3 4 -3 8 -14 8 -10 0 -19 -5 -19 -11 0 -5 -5
-3 -10 5 -8 13 -10 12 -10 -3 0 -17 -1 -17 -16 -3 -20 20 -28 20 -20 1 5 -13
2 -13 -19 1 -23 15 -30 12 -25 -11 1 -5 -9 -1 -21 10 -12 11 -19 14 -14 6 6
-11 4 -13 -10 -8 -9 4 -25 2 -33 -5 -11 -9 -14 -9 -9 -1 4 6 3 14 -3 18 -5 3
-10 1 -10 -5 0 -6 -5 -8 -12 -4 -8 5 -9 2 -5 -10 4 -10 3 -15 -3 -11 -6 3 -10
13 -10 21 0 17 -12 18 -28 2 -10 -10 -15 -10 -22 2 -9 14 -11 13 -14 -9 0 -5
-5 -13 -10 -18 -5 -4 -7 -3 -3 2 3 6 2 17 -4 25 -7 12 -9 12 -9 1 0 -11 -3
-11 -17 0 -12 10 -15 10 -9 1 6 -10 2 -10 -18 -1 -21 10 -24 17 -19 37 5 20 3
23 -8 17 -11 -7 -12 -6 -2 6 6 8 10 33 9 57 -1 24 1 45 5 48 9 5 5 51 -4 61
-4 3 -7 11 -7 17 0 6 5 4 10 -4 7 -11 10 -8 10 15 0 17 -6 37 -12 44 -11 10
-9 11 7 5 16 -6 18 -5 8 7 -7 7 -13 18 -13 24 0 5 5 3 10 -5 9 -13 10 -13 11
0 1 8 3 27 5 43 1 15 -1 25 -7 22 -5 -4 -9 -1 -9 4 0 6 7 11 16 11 14 0 15 2
3 17 -11 13 -11 15 -1 9 9 -5 13 -3 11 5 -1 8 1 22 6 32 4 9 5 28 3 42 -3 13
-2 24 1 23 20 -2 22 4 5 17 -13 11 -14 13 -3 9 20 -6 32 29 15 46 -8 8 -6 9 7
4 19 -7 21 15 2 28 -6 5 -4 8 6 8 9 0 22 20 34 53 10 28 25 62 33 74 7 12 11
27 7 33 -3 5 -1 10 5 10 6 0 8 5 5 10 -3 6 -2 10 4 10 16 0 23 40 10 58 -11
14 -11 15 1 5 17 -15 34 -17 25 -3 -3 6 -2 10 4 10 6 0 17 14 26 30 9 17 13
30 11 30 -2 0 9 14 26 30 16 17 28 37 25 44 -3 8 1 13 10 12 9 0 18 5 20 12 3
8 -2 10 -14 6 -14 -5 -15 -4 -4 4 8 6 21 8 29 4 10 -4 13 -1 8 7 -5 8 -1 14
13 18 12 3 21 12 21 20 0 8 9 17 21 20 14 4 19 12 16 24 -6 21 8 26 16 7 3 -7
6 1 7 17 1 25 3 27 9 10 7 -16 9 -17 17 -4 5 9 23 24 41 34 18 10 30 22 27 27
-3 4 4 8 16 8 12 0 29 13 41 33 12 17 19 24 15 15 -7 -22 12 -24 20 -3 4 8 13
15 21 15 22 0 74 30 69 39 -3 5 6 7 19 5 14 -1 25 2 25 7 0 6 4 8 9 5 11 -7
83 22 93 38 6 8 8 8 8 -1 0 -7 7 -10 15 -7 8 4 12 11 8 18 -4 7 -2 7 7 -1 9
-8 19 -9 32 -2 10 5 18 7 18 4 0 -4 6 -3 12 2 13 7 18 8 78 11 26 2 31 5 20
12 -12 7 -10 9 7 7 12 0 20 -4 17 -8 -2 -4 3 -6 12 -5 8 1 20 9 25 17 5 8 9 9
9 2 0 -12 17 -12 37 0 6 4 14 3 18 -2 7 -12 45 -10 45 2 0 4 6 5 12 1 22 -14
48 -11 48 5 0 12 2 13 9 3 4 -7 29 -14 54 -16z m1488 -139 c-10 -9 -11 -8 -5
6 3 10 9 15 12 12 3 -3 0 -11 -7 -18z m-914 -19 c-3 -8 -6 -5 -6 6 -1 11 2 17
5 13 3 -3 4 -12 1 -19z m1053 -184 c0 -8 -19 -13 -24 -6 -3 5 1 9 9 9 8 0 15
-2 15 -3z m-736 -86 c-3 -4 -9 -8 -15 -8 -5 0 -9 4 -9 8 0 5 7 9 15 9 8 0 12
-4 9 -9z m786 -12 c0 -2 -7 -7 -16 -10 -8 -3 -12 -2 -9 4 6 10 25 14 25 6z
m-2767 -21 c-3 -9 -8 -14 -10 -11 -3 3 -2 9 2 15 9 16 15 13 8 -4z m-38 -65
c-3 -5 -12 -10 -18 -10 -7 0 -6 4 3 10 19 12 23 12 15 0z m2840 -9 c3 -5 2
-12 -3 -15 -5 -3 -9 1 -9 9 0 17 3 19 12 6z m-2920 -131 c3 -5 1 -10 -4 -10
-6 0 -11 5 -11 10 0 6 2 10 4 10 3 0 8 -4 11 -10z m-130 -440 c3 -6 -1 -7 -9
-4 -18 7 -21 14 -7 14 6 0 13 -4 16 -10z m1610 -900 c3 -5 1 -10 -4 -10 -6 0
-11 5 -11 10 0 6 2 10 4 10 3 0 8 -4 11 -10z m1480 0 c3 -5 1 -10 -4 -10 -6 0
-11 5 -11 10 0 6 2 10 4 10 3 0 8 -4 11 -10z m-3124 -123 c-10 -9 -11 -8 -5 6
3 10 9 15 12 12 3 -3 0 -11 -7 -18z m-617 -713 c3 -8 2 -12 -4 -9 -6 3 -10 10
-10 16 0 14 7 11 14 -7z m861 -273 c3 -5 2 -12 -3 -15 -5 -3 -9 1 -9 9 0 17 3
19 12 6z m172 -207 c-3 -3 -12 -4 -19 -1 -8 3 -5 6 6 6 11 1 17 -2 13 -5z m77
-62 c3 -5 -1 -9 -9 -9 -8 0 -12 4 -9 9 3 4 7 8 9 8 2 0 6 -4 9 -8z m-851 -77
c-3 -9 -8 -14 -10 -11 -3 3 -2 9 2 15 9 16 15 13 8 -4z m1143 -107 c4 -7 4
-10 -1 -6 -4 4 -15 2 -24 -5 -14 -11 -14 -10 -2 6 16 20 18 21 27 5z m104 -38
c0 -5 -2 -10 -4 -10 -3 0 -8 5 -11 10 -3 6 -1 10 4 10 6 0 11 -4 11 -10z
m-1115 -50 c10 -11 16 -20 13 -20 -3 0 -13 9 -23 20 -10 11 -16 20 -13 20 3 0
13 -9 23 -20z m75 -85 c14 -19 14 -19 -2 -6 -10 7 -18 18 -18 24 0 6 1 8 3 6
1 -2 9 -13 17 -24z m97 -80 c0 -8 -4 -12 -9 -9 -5 3 -6 10 -3 15 9 13 12 11
12 -6z m2796 0 c-3 -9 -8 -14 -10 -11 -3 3 -2 9 2 15 9 16 15 13 8 -4z m-198
-145 c-3 -5 -12 -10 -18 -10 -7 0 -6 4 3 10 19 12 23 12 15 0z m-135 -79 c0
-6 -4 -12 -8 -15 -5 -3 -9 1 -9 9 0 8 4 15 9 15 4 0 8 -4 8 -9z m-1765 -141
c-3 -5 -12 -10 -18 -10 -7 0 -6 4 3 10 19 12 23 12 15 0z m1345 -20 c0 -5 -5
-10 -11 -10 -5 0 -7 5 -4 10 3 6 8 10 11 10 2 0 4 -4 4 -10z m-1143 -25 c0 -8
-4 -12 -9 -9 -5 3 -6 10 -3 15 9 13 12 11 12 -6z m836 -30 c-3 -9 -8 -14 -10
-11 -3 3 -2 9 2 15 9 16 15 13 8 -4z m-598 -13 c-3 -3 -11 0 -18 7 -9 10 -8
11 6 5 10 -3 15 -9 12 -12z m530 8 c3 -5 1 -10 -4 -10 -6 0 -11 5 -11 10 0 6
2 10 4 10 3 0 8 -4 11 -10z"/>
<path d="M4835 5710 c3 -5 8 -10 11 -10 2 0 4 5 4 10 0 6 -5 10 -11 10 -5 0
-7 -4 -4 -10z"/>
<path d="M3345 3209 c-9 -14 -2 -20 14 -10 8 6 9 11 3 15 -6 3 -14 1 -17 -5z"/>
<path d="M5265 3209 c-9 -14 -2 -20 14 -10 8 6 9 11 3 15 -6 3 -14 1 -17 -5z"/>
<path d="M5640 2229 c0 -5 5 -7 10 -4 6 3 10 8 10 11 0 2 -4 4 -10 4 -5 0 -10
-5 -10 -11z"/>
<path d="M5790 1790 c0 -5 5 -10 11 -10 5 0 7 5 4 10 -3 6 -8 10 -11 10 -2 0
-4 -4 -4 -10z"/>
</g>
</svg>
