<?xml version="1.0" standalone="no"?>
<!DOCTYPE svg PUBLIC "-//W3C//DTD SVG 20010904//EN"
 "http://www.w3.org/TR/2001/REC-SVG-20010904/DTD/svg10.dtd">
<svg version="1.0" xmlns="http://www.w3.org/2000/svg"
 width="512.000000pt" height="512.000000pt" viewBox="0 0 512.000000 512.000000"
 preserveAspectRatio="xMidYMid meet">
<metadata>
Created by potrace 1.14, written by Peter Selinger 2001-2017
</metadata>
<g transform="translate(0.000000,512.000000) scale(0.100000,-0.100000)"
fill="#000000" stroke="none">
<path d="M1137 5104 c-1 -1 -38 -4 -82 -7 -123 -9 -150 -14 -255 -47 -230 -71
-450 -231 -576 -416 -21 -33 -42 -61 -45 -64 -7 -6 -82 -164 -97 -205 -12 -33
-36 -114 -37 -130 -1 -5 -4 -23 -8 -40 -3 -16 -9 -50 -13 -75 -7 -55 -8 -3059
0 -3115 17 -130 60 -272 114 -375 39 -75 73 -134 81 -140 3 -3 19 -22 35 -43
55 -74 228 -237 252 -237 4 0 15 -6 23 -14 54 -46 282 -143 356 -151 6 -1 25
-5 44 -9 18 -5 52 -10 75 -12 62 -7 3054 -6 3112 0 77 9 232 50 316 86 153 63
364 230 443 348 15 23 32 42 37 42 5 0 7 4 3 9 -3 5 -1 12 4 16 32 19 135 255
155 355 3 14 9 36 13 50 12 40 14 3187 2 3240 -6 25 -13 56 -15 70 -37 208
-218 492 -399 625 -22 17 -46 36 -53 43 -7 6 -17 12 -22 12 -5 0 -15 6 -22 13
-20 20 -147 82 -208 102 -30 10 -62 20 -70 23 -40 13 -119 28 -204 38 -41 5
-2954 12 -2959 8z"/>
</g>
</svg>
