<?xml version="1.0" encoding="UTF-8"?>
<!-- Generated by Pixelmator Pro 3.4.3 -->
<svg width="830" height="830" viewBox="0 0 830 830" xmlns="http://www.w3.org/2000/svg">
    <path id="Shape" fill="#000000" fill-rule="evenodd" stroke="#180019" stroke-width="10" stroke-linecap="round" d="M 653.6875 8.125 L 671.53125 9.703125 L 680.109375 11.109375 L 692.84375 14.0625 L 701.203125 16.546875 L 713.125 20.921875 L 720.78125 24.25 L 732.375 30.1875 L 746.484375 39 L 753.234375 43.90625 L 763.078125 52.046875 L 772.34375 60.875 L 777.8125 66.75 L 786.078125 76.75 L 790.984375 83.5 L 797.84375 94.21875 L 801.84375 101.390625 L 807.421875 112.9375 L 810.5625 120.640625 L 814.71875 132.890625 L 817.046875 141.484375 L 820.3125 158.546875 L 821.625 171.59375 L 822 183 L 822 646.78125 L 821.28125 662.84375 L 819.65625 675.640625 L 817 688.640625 L 812.078125 705.1875 L 807.375 717.140625 L 801.890625 728.515625 L 795.5625 739.515625 L 786 753.328125 L 777.9375 763.078125 L 766.15625 775.140625 L 753.34375 785.984375 L 743.0625 793.28125 L 728.53125 801.875 L 717.140625 807.375 L 705.203125 812.078125 L 692.78125 815.9375 L 680.109375 818.875 L 671.359375 820.3125 L 658.359375 821.625 L 649.125 821.984375 L 183.21875 822 L 167.265625 821.296875 L 149.875 818.859375 L 133 814.75 L 116.8125 809.046875 L 101.40625 801.859375 L 86.953125 793.3125 L 73.25 783.328125 L 67 778.03125 L 57.640625 769.109375 L 46.671875 756.75 L 36.671875 743.03125 L 28.125 728.578125 L 20.9375 713.171875 L 15.234375 696.984375 L 11.125 680.109375 L 8.6875 662.71875 L 8 646.78125 L 8 183.21875 L 8.703125 167.078125 L 10.328125 154.34375 L 12.984375 141.34375 L 17.90625 124.796875 L 22.578125 112.953125 L 30.203125 97.578125 L 36.640625 87.015625 L 46.59375 73.34375 L 54.875 63.796875 L 66.921875 52.015625 L 80.03125 41.46875 L 90.453125 34.4375 L 105.109375 26.234375 L 116.890625 20.921875 L 133.015625 15.234375 L 145.53125 12.015625 L 162.984375 9.125 L 180.734375 8 Z"/>
    <filter id="filter1" x="0" y="0" width="830" height="830" filterUnits="userSpaceOnUse" primitiveUnits="userSpaceOnUse" color-interpolation-filters="sRGB">
        <feGaussianBlur stdDeviation="3.341797"/>
    </filter>
    <path id="path1" fill="#ffffff" fill-rule="evenodd" stroke="none" filter="url(#filter1)" d="M 555.00293 126.396484 L 555.00293 68.706055 L 281.077148 68.706055 L 281.077148 126.396484 Z M 536.326172 578.789063 C 523.875 618.217773 481.956055 642.290039 425.095703 642.290039 C 348.313477 642.290039 299.338867 589.165039 299.338867 506.572266 L 299.338867 488.310547 L 606.052734 488.310547 L 606.052734 444.316406 C 606.052734 313.994141 537.15625 236.381836 420.115234 236.381836 C 305.564453 236.381836 229.612305 314.40918 229.612305 433.110352 L 229.612305 500.761719 C 229.612305 629.008789 301.414063 703.300781 425.095703 703.300781 C 519.724609 703.300781 591.111328 653.081055 604.807617 578.789063 Z M 419.700195 296.977539 C 492.332031 296.977539 536.326172 348.857422 536.326172 434.770508 L 299.338867 434.770508 C 299.338867 348.442383 344.578125 296.977539 419.700195 296.977539 Z"/>
</svg>
