<?xml version="1.0" standalone="no"?>
<!DOCTYPE svg PUBLIC "-//W3C//DTD SVG 20010904//EN"
 "http://www.w3.org/TR/2001/REC-SVG-20010904/DTD/svg10.dtd">
<svg version="1.0" xmlns="http://www.w3.org/2000/svg"
 width="512.000000pt" height="512.000000pt" viewBox="0 0 512.000000 512.000000"
 preserveAspectRatio="xMidYMid meet">
<metadata>
Created by potrace 1.14, written by Peter Selinger 2001-2017
</metadata>
<g transform="translate(0.000000,512.000000) scale(0.100000,-0.100000)"
fill="#000000" stroke="none">
<path d="M985 5113 c-409 -52 -757 -324 -908 -708 -77 -197 -72 -60 -72 -1845
0 -1513 1 -1599 18 -1675 100 -432 430 -762 862 -862 76 -17 162 -18 1675 -18
1513 0 1599 1 1675 18 432 100 762 430 862 862 17 76 18 162 18 1675 0 1785 5
1648 -72 1845 -135 343 -414 588 -785 687 l-83 22 -1580 2 c-869 1 -1593 0
-1610 -3z m2440 -578 l0 -170 -847 -3 -848 -2 0 175 0 175 848 -2 847 -3 0
-170z m-683 -876 c437 -47 740 -274 899 -672 27 -66 53 -160 73 -262 26 -133
46 -531 30 -592 l-6 -23 -947 -2 -946 -3 1 -140 c1 -172 25 -279 89 -410 94
-192 233 -310 445 -377 67 -20 94 -23 250 -23 205 0 265 12 408 82 113 55 192
129 246 232 l37 71 205 0 c232 0 217 7 188 -91 -23 -76 -84 -193 -138 -266
-145 -193 -385 -330 -681 -389 -122 -24 -422 -25 -548 -1 -442 82 -730 326
-862 731 -63 195 -70 264 -70 711 0 427 3 461 56 639 104 349 370 623 705 729
186 59 370 77 566 56z"/>
<path d="M2385 3271 c-321 -79 -513 -341 -542 -740 l-6 -88 39 -6 c50 -9 1347
-9 1397 -1 l37 7 0 76 c0 124 -36 279 -91 394 -90 188 -248 316 -446 361 -97
22 -294 20 -388 -3z"/>
</g>
</svg>
