<?xml version="1.0" encoding="UTF-8"?>
<!-- Generated by Pixelmator Pro 3.4.3 -->
<svg width="824" height="824" viewBox="0 0 824 824" xmlns="http://www.w3.org/2000/svg">
    <path id="Shape" fill="#000000" fill-rule="evenodd" stroke="#180019" stroke-width="10" stroke-linecap="round" d="M 650.6875 5.125 L 668.53125 6.703125 L 677.109375 8.109375 L 689.84375 11.0625 L 698.203125 13.546875 L 710.125 17.921875 L 717.78125 21.25 L 729.375 27.1875 L 743.484375 36 L 750.234375 40.90625 L 760.078125 49.046875 L 769.34375 57.875 L 774.8125 63.75 L 783.078125 73.75 L 787.984375 80.5 L 794.84375 91.21875 L 798.84375 98.390625 L 804.421875 109.9375 L 807.5625 117.640625 L 811.71875 129.890625 L 814.046875 138.484375 L 817.3125 155.546875 L 818.625 168.59375 L 819 180 L 819 643.78125 L 818.28125 659.84375 L 816.65625 672.640625 L 814 685.640625 L 809.078125 702.1875 L 804.375 714.140625 L 798.890625 725.515625 L 792.5625 736.515625 L 783 750.328125 L 774.9375 760.078125 L 763.15625 772.140625 L 750.34375 782.984375 L 740.0625 790.28125 L 725.53125 798.875 L 714.140625 804.375 L 702.203125 809.078125 L 689.78125 812.9375 L 677.109375 815.875 L 668.359375 817.3125 L 655.359375 818.625 L 646.125 818.984375 L 180.21875 819 L 164.265625 818.296875 L 146.875 815.859375 L 130 811.75 L 113.8125 806.046875 L 98.40625 798.859375 L 83.953125 790.3125 L 70.25 780.328125 L 64 775.03125 L 54.640625 766.109375 L 43.671875 753.75 L 33.671875 740.03125 L 25.125 725.578125 L 17.9375 710.171875 L 12.234375 693.984375 L 8.125 677.109375 L 5.6875 659.71875 L 5 643.78125 L 5 180.21875 L 5.703125 164.078125 L 7.328125 151.34375 L 9.984375 138.34375 L 14.90625 121.796875 L 19.578125 109.953125 L 27.203125 94.578125 L 33.640625 84.015625 L 43.59375 70.34375 L 51.875 60.796875 L 63.921875 49.015625 L 77.03125 38.46875 L 87.453125 31.4375 L 102.109375 23.234375 L 113.890625 17.921875 L 130.015625 12.234375 L 142.53125 9.015625 L 159.984375 6.125 L 177.734375 5 Z"/>
    <filter id="filter1" x="0" y="0" width="824" height="824" filterUnits="userSpaceOnUse" primitiveUnits="userSpaceOnUse" color-interpolation-filters="sRGB">
        <feGaussianBlur stdDeviation="3.341797"/>
    </filter>
    <text id="text1" filter="url(#filter1)" xml:space="preserve" x="147" y="694" font-family="SFMono Nerd Font" font-size="850" fill="#ffffff">ē</text>
</svg>
